<?xml version="1.0" ?><svg id="Layer_1" style="enable-background:new 0 0 41 41;" version="1.1" viewBox="0 0 41 41" xml:space="preserve" xmlns="http://www.w3.org/2000/svg" xmlns:xlink="http://www.w3.org/1999/xlink"><style type="text/css">
	.st0{fill:#FFD766;}
	.st1{fill:#F7C74D;}
	.st2{fill:#FFFFFF;}
	.st3{fill:#FF7885;}
	.st4{fill:#F2576E;}
	.st5{fill:#5AD0FF;}
	.st6{fill:#34BDE8;}
	.st7{fill:#36FFB6;}
	.st8{fill:#27E29A;}
	.st9{fill:#B7BDD9;}
	.st10{fill:#AAB1CC;}
	.st11{fill:#E6A77C;}
	.st12{fill:#D89568;}
	.st13{fill:#FF8DE1;}
	.st14{fill:#EF73D5;}
</style><g><g><ellipse class="st11" cx="20.5" cy="20.5" rx="20" ry="20" transform="matrix(0.9239 -0.3827 0.3827 0.9239 -6.2845 9.4055)"/><path class="st12" d="M20.5,38.8c-10.8,0-19.5-8.5-20-19.2c0,0.3,0,0.6,0,0.8c0,11,9,20,20,20c11,0,20-9,20-20c0-0.3,0-0.6,0-0.8    C40,30.3,31.3,38.8,20.5,38.8z"/></g><g><path class="st12" d="M17.4,8.9H10c-0.8,0-1.5,0.7-1.5,1.5v7.4c0,0.8,0.7,1.5,1.5,1.5h7.4c0.8,0,1.5-0.7,1.5-1.5v-7.4    C18.9,9.6,18.3,8.9,17.4,8.9z M15.9,16.3h-4.4v-4.4h4.4V16.3z"/><path class="st12" d="M22.7,13.5H31c0.8,0,1.5-0.7,1.5-1.5s-0.7-1.5-1.5-1.5h-8.3c-0.8,0-1.5,0.7-1.5,1.5S21.9,13.5,22.7,13.5z"/><path class="st12" d="M22.7,17.8h4.1c0.8,0,1.5-0.7,1.5-1.5s-0.7-1.5-1.5-1.5h-4.1c-0.8,0-1.5,0.7-1.5,1.5S21.9,17.8,22.7,17.8z"/><path class="st12" d="M17.4,22.5H10c-0.8,0-1.5,0.7-1.5,1.5v7.4c0,0.8,0.7,1.5,1.5,1.5h7.4c0.8,0,1.5-0.7,1.5-1.5V24    C18.9,23.1,18.3,22.5,17.4,22.5z M15.9,29.9h-4.4v-4.4h4.4V29.9z"/><path class="st12" d="M31,24h-8.3c-0.8,0-1.5,0.7-1.5,1.5s0.7,1.5,1.5,1.5H31c0.8,0,1.5-0.7,1.5-1.5S31.8,24,31,24z"/><path class="st12" d="M26.8,28.3h-4.1c-0.8,0-1.5,0.7-1.5,1.5s0.7,1.5,1.5,1.5h4.1c0.8,0,1.5-0.7,1.5-1.5S27.7,28.3,26.8,28.3z"/></g><g><path class="st2" d="M17.4,7H10C9.2,7,8.5,7.7,8.5,8.5v7.4c0,0.8,0.7,1.5,1.5,1.5h7.4c0.8,0,1.5-0.7,1.5-1.5V8.5    C18.9,7.7,18.3,7,17.4,7z M15.9,14.4h-4.4V10h4.4V14.4z"/><path class="st2" d="M22.7,11.6H31c0.8,0,1.5-0.7,1.5-1.5S31.8,8.6,31,8.6h-8.3c-0.8,0-1.5,0.7-1.5,1.5S21.9,11.6,22.7,11.6z"/><path class="st2" d="M22.7,15.9h4.1c0.8,0,1.5-0.7,1.5-1.5s-0.7-1.5-1.5-1.5h-4.1c-0.8,0-1.5,0.7-1.5,1.5S21.9,15.9,22.7,15.9z"/><path class="st2" d="M17.4,20.6H10c-0.8,0-1.5,0.7-1.5,1.5v7.4c0,0.8,0.7,1.5,1.5,1.5h7.4c0.8,0,1.5-0.7,1.5-1.5v-7.4    C18.9,21.2,18.3,20.6,17.4,20.6z M15.9,28h-4.4v-4.4h4.4V28z"/><path class="st2" d="M31,22.1h-8.3c-0.8,0-1.5,0.7-1.5,1.5s0.7,1.5,1.5,1.5H31c0.8,0,1.5-0.7,1.5-1.5S31.8,22.1,31,22.1z"/><path class="st2" d="M26.8,26.4h-4.1c-0.8,0-1.5,0.7-1.5,1.5s0.7,1.5,1.5,1.5h4.1c0.8,0,1.5-0.7,1.5-1.5S27.7,26.4,26.8,26.4z"/></g></g></svg>